<svg width="22" height="22" viewBox="0 0 22 22" fill="none" xmlns="http://www.w3.org/2000/svg">
<path fill-rule="evenodd" clip-rule="evenodd" d="M0.0625 11C0.0625 4.95939 4.95939 0.0625 11 0.0625C17.0406 0.0625 21.9375 4.95939 21.9375 11C21.9375 17.0406 17.0406 21.9375 11 21.9375C4.95939 21.9375 0.0625 17.0406 0.0625 11ZM9.56228 7.63594C8.39532 8.59599 7.6157 9.94632 7.36775 11.437L6.54686 16.3721C6.35735 17.5114 7.68213 18.2763 8.57407 17.5425L12.4376 14.364C13.6045 13.404 14.3841 12.0536 14.6321 10.563L15.453 5.62788C15.6425 4.48854 14.3177 3.72367 13.4258 4.45747L9.56228 7.63594Z" fill="#525A5B"/>
<path d="M9.125 11C9.125 9.96447 9.96447 9.125 11 9.125C12.0355 9.125 12.875 9.96447 12.875 11C12.875 12.0355 12.0355 12.875 11 12.875C9.96447 12.875 9.125 12.0355 9.125 11Z" fill="#525A5B"/>
</svg>
